<svg width="752pt" height="752pt" version="1.1" viewBox="0 0 752 752" xmlns="http://www.w3.org/2000/svg">
 <g>
  <rect width="752" height="752"/>
  <path d="m272.41 494.4c-7.8516 0-15.379-3.1211-20.93-8.6719-5.5508-5.5508-8.668-13.078-8.668-20.93v-35.371c0.011718-19.797-9.875-38.293-26.344-49.281l-6.2148-4.1445 6.2148-4.1445v0.003906c16.469-10.988 26.355-29.484 26.344-49.285v-35.371c0-7.8477 3.1172-15.375 8.668-20.926 5.5508-5.5508 13.078-8.6719 20.93-8.6719 5.2852 0 10.172-2.8203 12.816-7.3984 2.6445-4.5781 2.6445-10.223 0-14.801-2.6445-4.5781-7.5312-7.3984-12.816-7.3984-15.699 0-30.758 6.2383-41.859 17.34-11.102 11.102-17.34 26.156-17.34 41.855v35.371c0.03125 9.9258-4.9141 19.207-13.172 24.715l-24.566 16.43c-4.0898 2.75-6.543 7.3555-6.543 12.281 0 4.9297 2.4531 9.5352 6.543 12.285l24.566 16.426c8.2578 5.5117 13.203 14.789 13.172 24.715v35.371c0 15.699 6.2383 30.758 17.34 41.859s26.16 17.34 41.859 17.34c5.2852 0 10.172-2.8203 12.816-7.3984 2.6445-4.582 2.6445-10.223 0-14.801-2.6445-4.5781-7.5312-7.3984-12.816-7.3984z" fill="#00bac2"/>
  <path d="m576.54 363.72-24.566-16.426-0.003906-0.003907c-8.2539-5.5078-13.203-14.789-13.172-24.715v-35.371c0-15.699-6.2344-30.754-17.336-41.855-11.102-11.102-26.16-17.34-41.859-17.34-5.2891 0-10.172 2.8203-12.816 7.3984s-2.6445 10.223 0 14.801 7.5273 7.3984 12.816 7.3984c7.8516 0 15.379 3.1211 20.93 8.6719 5.5508 5.5508 8.668 13.078 8.668 20.926v35.371c-0.011718 19.801 9.875 38.297 26.344 49.285l6.2148 4.1445-6.2148 4.1445v-0.003907c-16.469 10.988-26.355 29.484-26.344 49.281v35.371c0 7.8516-3.1172 15.379-8.668 20.93-5.5508 5.5508-13.078 8.6719-20.93 8.6719-5.2891 0-10.172 2.8203-12.816 7.3984s-2.6445 10.219 0 14.801c2.6445 4.5781 7.5273 7.3984 12.816 7.3984 15.699 0 30.758-6.2383 41.859-17.34 11.102-11.102 17.336-26.16 17.336-41.859v-35.371c-0.03125-9.9258 4.918-19.203 13.172-24.715l24.566-16.426h0.003906c4.0898-2.75 6.543-7.3555 6.543-12.285 0-4.9258-2.4531-9.5312-6.543-12.281z" fill="#00bac2"/>
  <path d="m302 361.2h-29.598c-5.2891 0-10.172 2.8203-12.816 7.3984-2.6445 4.5781-2.6445 10.219 0 14.801 2.6445 4.5781 7.5273 7.3984 12.816 7.3984h29.598c5.2891 0 10.172-2.8203 12.816-7.3984 2.6445-4.582 2.6445-10.223 0-14.801-2.6445-4.5781-7.5273-7.3984-12.816-7.3984z" fill="#00bac2"/>
  <path d="m390.8 361.2h-29.598c-5.2891 0-10.176 2.8203-12.816 7.3984-2.6445 4.5781-2.6445 10.219 0 14.801 2.6406 4.5781 7.5273 7.3984 12.816 7.3984h29.598c5.2891 0 10.172-2.8203 12.816-7.3984 2.6445-4.582 2.6445-10.223 0-14.801-2.6445-4.5781-7.5273-7.3984-12.816-7.3984z" fill="#00bac2"/>
  <path d="m494.4 376c0-3.9219-1.5625-7.6875-4.3359-10.465-2.7773-2.7734-6.5391-4.332-10.465-4.332h-29.598c-5.2891 0-10.176 2.8203-12.816 7.3984-2.6445 4.5781-2.6445 10.219 0 14.801 2.6406 4.5781 7.5273 7.3984 12.816 7.3984h29.598c3.9258 0 7.6875-1.5586 10.465-4.3359 2.7734-2.7734 4.3359-6.5391 4.3359-10.465z" fill="#00bac2"/>
 </g>
</svg>
